<svg id="Layer_1" data-name="Layer 1" xmlns="http://www.w3.org/2000/svg" viewBox="0 0 859.91 272.59"><path d="M653.41,249.8H251v-1.73a8.93,8.93,0,0,1,8.92-8.92H644.49a8.92,8.92,0,0,1,8.92,8.92Z" style="fill:#6f9cd6"/><path d="M406.27,244.14h86.42a8.92,8.92,0,0,1,8.92,8.92v1.72a0,0,0,0,1,0,0H397.35a0,0,0,0,1,0,0v-1.72A8.92,8.92,0,0,1,406.27,244.14Z" style="fill:#94c9f7"/><g style="opacity:0.55"><polyline points="272.55 225.12 312.18 225.12 468.46 17.72 428.83 17.72" style="fill:#d2ecff"/><polyline points="555.64 226.84 578.25 227.5 629.47 151.68 628.8 123.08" style="fill:#d2ecff"/><polygon points="566.6 17.72 410.32 225.12 469.95 225.12 626.23 17.72 566.6 17.72" style="fill:#d2ecff"/></g><path d="M645.22,15.2C645.21,4.43,640.73,0,630,0c-18.33,0-36.65.08-55,.08L273.18,0c-11.45,0-15.61,4.2-15.61,15.71V221.15c0,2.17-.09,4.34.08,6.49.54,6.87,4.05,10.16,10.82,10.16H634.83c5.68,0,8.84-2.58,10-8.21a24.86,24.86,0,0,0,.41-5Q645.25,119.91,645.22,15.2Zm-16.57,210H273.83V17.81H628.65Z" style="fill:#283060"/><path d="M478.19,103.72C474.28,90,463.75,83.1,449.63,83.64c-12.72.48-22,8.17-25.22,21.62a91.46,91.46,0,0,0-.59,40.12,38.91,38.91,0,0,0,6.51,14.37c10.09,14,32.32,13.88,42.94.32,7.5-9.57,7.8-20.91,8.44-36.27C481,119.67,480.4,111.47,478.19,103.72Zm-14.92,42.5a18.33,18.33,0,0,1-2.54,6.43c-4.2,7.11-14.06,7.32-17.88,0a30.28,30.28,0,0,1-3.63-13.27c-.07-11.22.08-22.55,1.6-33.64,1.16-8.48,9-12.58,15.33-8.76a16.59,16.59,0,0,1,6.71,9.2c1.71,6.51,2,13.41,2.8,19.87C464.86,133.06,464.26,139.67,463.27,146.22Z" style="fill:#283060"/><path d="M554.56,144.47c.15-8.58-7.17-5.84-12.13-7.61v-5.28c0-13,0-26,0-39,0-3.81-.91-7.42-5.14-8.81-4-1.32-7.63-.79-10.31,2.77-12.41,16.5-24.95,32.89-37.08,49.59-5.08,7-1.12,14.35,7.59,14.65,8.16.28,16.32.07,24.49.11,1.75,0,3.49.17,5.54.28,0,3.77-.08,6.93,0,10.08.19,6.1,2.78,9.07,7.68,9s7.06-2.78,7.22-8.81c.1-3.41,0-6.83,0-10.12C552.88,150.16,554.48,149.24,554.56,144.47Zm-27.39-7.35h-23l23-31.07Z" style="fill:#283060"/><path d="M409.06,137.81c-1.93-.26-3.88-.4-6.39-.64V131c0-12.83.1-25.67-.05-38.5-.09-7.46-5.88-11.65-11.94-8.59-2.1,1.06-3.84,3.17-5.32,5.12-11.35,15-22.59,30.1-33.9,45.15-2.74,3.65-4.61,7.43-2.19,12,2.32,4.35,6.44,4.77,10.76,4.75,9,0,17.94,0,27.38,0,.32,5.07.34,9.4.92,13.66s3.71,5.68,7.61,5.63,6-2.45,6.49-6.23a25.23,25.23,0,0,0,.17-5.49c-.49-4.87,0-8.37,6.47-7.93,3.84.26,5.93-2.69,5.93-6.6S412.63,138.28,409.06,137.81Zm-21.78-.69H364.49c7.73-10.45,14.94-20.18,22.79-30.77Z" style="fill:#283060"/><path d="M780.17,267.07a5.53,5.53,0,0,1-5.51,5.52H85.18a5.52,5.52,0,0,1,0-11H227.09c-4.6-4.88-3.22-11.45-3.15-18.31h24.52q78.48,0,157,0c3.19,0,5.51.65,7.77,3.28a10.71,10.71,0,0,0,7.12,3.4c20.66.26,41.32.29,62,0,2.67,0,5.3-2.53,8-3.85,1.95-1,3.94-2.65,5.91-2.65q89.46-.12,178.94.09c1.13,0,2.27.2,3.75.34,0,6.23,1.59,12.74-3.26,17.74h99.07A5.51,5.51,0,0,1,780.17,267.07Z" style="fill:#283060"/><rect y="261.56" width="49.81" height="11.03" rx="5.52" style="fill:#283060"/><rect x="810.09" y="261.56" width="49.81" height="11.03" rx="5.52" style="fill:#283060"/></svg>